<svg width="48" height="48" xmlns="http://www.w3.org/2000/svg">

 <g>
  <title>background</title>
  <rect fill="none" id="canvas_background" height="402" width="582" y="-1" x="-1"/>
 </g>
 <g>
  <title>Layer 1</title>
  <path fill="#bc2618" id="svg_3" d="m43,48l-14,0c-0.553,0 -1,-0.448 -1,-1l0,-46c0,-0.552 0.447,-1 1,-1l14,0c0.553,0 1,0.448 1,1l0,46c0,0.552 -0.447,1 -1,1zm-13,-2l12,0l0,-44l-12,0l0,44z"/>
  <rect fill="#bc2618" id="svg_5" y="8" x="29" width="5" height="2"/>
  <rect fill="#bc2618" id="svg_7" y="14" x="29" width="5" height="2"/>
  <rect fill="#bc2618" id="svg_9" y="20" x="29" width="5" height="2"/>
  <rect fill="#bc2618" id="svg_11" y="26" x="29" width="5" height="2"/>
  <rect fill="#bc2618" id="svg_13" y="32" x="29" width="5" height="2"/>
  <rect fill="#bc2618" id="svg_15" y="38" x="29" width="5" height="2"/>
  <path fill="#bc2618" id="svg_17" d="m15,46l-4,0c-2.757,0 -5,-2.243 -5,-5l0,-29c0,-0.197 0.059,-0.391 0.168,-0.555l6,-9c0.371,-0.557 1.293,-0.557 1.664,0l6,9c0.109,0.164 0.168,0.358 0.168,0.555l0,29c0,2.757 -2.243,5 -5,5zm-7,-33.697l0,28.697c0,1.654 1.346,3 3,3l4,0c1.654,0 3,-1.346 3,-3l0,-28.697l-5,-7.5l-5,7.5z"/>
  <path fill="#bc2618" id="svg_19" d="m19,40l-12,0c-0.553,0 -1,-0.448 -1,-1s0.447,-1 1,-1l12,0c0.553,0 1,0.448 1,1s-0.447,1 -1,1z"/>
  <path fill="#bc2618" id="svg_21" d="m19,36l-12,0c-0.553,0 -1,-0.448 -1,-1s0.447,-1 1,-1l12,0c0.553,0 1,0.448 1,1s-0.447,1 -1,1z"/>
  <path fill="#bc2618" id="svg_23" d="m11,36c-0.553,0 -1,-0.448 -1,-1l0,-19c0,-0.552 0.447,-1 1,-1s1,0.448 1,1l0,19c0,0.552 -0.447,1 -1,1z"/>
  <path fill="#bc2618" id="svg_25" d="m15,36c-0.553,0 -1,-0.448 -1,-1l0,-19c0,-0.552 0.447,-1 1,-1s1,0.448 1,1l0,19c0,0.552 -0.447,1 -1,1z"/>
  <rect fill="#bc2618" id="svg_27" y="7" x="10" width="6" height="2"/>
  <path fill="#bc2618" id="svg_29" d="m10,17c-2.206,0 -4,-1.794 -4,-4c0,-0.552 0.447,-1 1,-1s1,0.448 1,1c0,1.103 0.897,2 2,2s2,-0.897 2,-2c0,-0.552 0.447,-1 1,-1s1,0.448 1,1c0,2.206 -1.794,4 -4,4z"/>
  <path fill="#bc2618" id="svg_31" d="m16,17c-2.206,0 -4,-1.794 -4,-4c0,-0.552 0.447,-1 1,-1s1,0.448 1,1c0,1.103 0.897,2 2,2s2,-0.897 2,-2c0,-0.552 0.447,-1 1,-1s1,0.448 1,1c0,2.206 -1.794,4 -4,4z"/>
 </g>
</svg>