<svg width="91" height="91" xmlns="http://www.w3.org/2000/svg">

 <g>
  <title>background</title>
  <rect fill="none" id="canvas_background" height="402" width="582" y="-1" x="-1"/>
 </g>
 <g>
  <title>Layer 1</title>
  <path fill="#bc2618" id="svg_5" d="m28.796,37.569c0.465,0.809 1.311,1.26 2.182,1.26c0.424,0 0.854,-0.107 1.248,-0.334l8.438,-4.849c1.203,-0.692 1.619,-2.227 0.928,-3.43s-2.227,-1.619 -3.432,-0.926l-8.438,4.848c-1.203,0.691 -1.618,2.228 -0.926,3.431z"/>
  <path fill="#bc2618" id="svg_6" d="m50.892,33.646l8.438,4.849c0.395,0.227 0.824,0.334 1.25,0.334c0.869,0 1.717,-0.451 2.18,-1.26c0.691,-1.203 0.277,-2.74 -0.926,-3.431l-8.438,-4.848c-1.203,-0.693 -2.738,-0.277 -3.43,0.926s-0.278,2.738 0.926,3.43z"/>
  <path fill="#bc2618" id="svg_7" d="m0.927,51.772l0,24.385c0,0.898 0.48,1.729 1.26,2.176l21.168,12.193c0.389,0.223 0.82,0.336 1.254,0.336s0.865,-0.113 1.254,-0.336l19.912,-11.471l19.92,11.471c0.389,0.223 0.82,0.336 1.254,0.336s0.865,-0.113 1.254,-0.336l21.166,-12.193c0.779,-0.447 1.26,-1.277 1.26,-2.176l0,-24.385c0,-0.898 -0.48,-1.729 -1.26,-2.178l-19.91,-11.469l0,-22.929c0,-0.898 -0.479,-1.729 -1.258,-2.178l-21.167,-12.193c-0.775,-0.447 -1.732,-0.447 -2.508,0l-21.172,12.194c-0.779,0.449 -1.26,1.279 -1.26,2.178l0,22.931l-19.907,11.467c-0.78,0.449 -1.26,1.279 -1.26,2.177zm5.025,4.397l16.143,9.504l0,18.33l-16.143,-9.299l0,-18.535zm37.313,-27.072l0,18.328l-16.145,-9.298l0,-18.534l16.145,9.504zm23.683,32.224l-16.18,-9.523l7.633,-4.398l8.547,-4.92l16.176,9.319l-16.176,9.522zm-2.515,-23.194l-5.707,3.287l-10.436,6.01l0,-18.327l16.143,-9.504l0,18.534zm-39.825,4.352l16.176,9.319l-16.176,9.523l-16.177,-9.525l16.177,-9.317zm2.512,41.524l0,-18.33l16.143,-9.504l0,18.535l-16.143,9.299zm21.17,-27.836l16.145,9.506l0,18.33l-16.145,-9.299l0,-18.537zm21.17,27.836l0,-18.33l16.143,-9.504l0,18.535l-16.143,9.299zm-23.68,-78.1l16.174,9.316l-16.178,9.525l-16.175,-9.524l16.179,-9.317z"/>
  <path fill="#bc2618" id="svg_8" d="m20.421,66.794c-0.691,-1.201 -2.227,-1.617 -3.43,-0.926l-8.438,4.846c-1.203,0.691 -1.619,2.227 -0.928,3.432c0.465,0.809 1.311,1.26 2.182,1.26c0.424,0 0.854,-0.107 1.248,-0.334l8.438,-4.846c1.203,-0.692 1.619,-2.227 0.928,-3.432z"/>
  <path fill="#bc2618" id="svg_9" d="m40.663,70.714l-8.438,-4.846c-1.203,-0.691 -2.738,-0.277 -3.43,0.928c-0.691,1.203 -0.275,2.738 0.928,3.43l8.438,4.846c0.395,0.227 0.824,0.334 1.248,0.334c0.871,0 1.717,-0.451 2.182,-1.262c0.691,-1.204 0.275,-2.739 -0.928,-3.43z"/>
  <path fill="#bc2618" id="svg_10" d="m62.761,66.794c-0.691,-1.201 -2.227,-1.617 -3.432,-0.926l-8.436,4.846c-1.203,0.691 -1.619,2.227 -0.928,3.432c0.465,0.809 1.311,1.26 2.182,1.26c0.424,0 0.854,-0.107 1.248,-0.334l8.438,-4.846c1.203,-0.692 1.617,-2.227 0.928,-3.432z"/>
  <path fill="#bc2618" id="svg_11" d="m83.003,70.714l-8.438,-4.846c-1.205,-0.691 -2.738,-0.277 -3.43,0.926c-0.691,1.205 -0.275,2.74 0.928,3.432l8.436,4.846c0.395,0.227 0.826,0.334 1.25,0.334c0.869,0 1.717,-0.451 2.182,-1.26c0.689,-1.206 0.275,-2.741 -0.928,-3.432z"/>
 </g>
</svg>