<svg width="24" height="24" xmlns="http://www.w3.org/2000/svg">

 <g>
  <title>background</title>
  <rect fill="none" id="canvas_background" height="402" width="582" y="-1" x="-1"/>
 </g>
 <g>
  <title>Layer 1</title>
  <path fill="#bc2618" id="svg_2" d="m12,0c-5,0 -9,4 -9,9c0,1.1 0.2,2.1 0.5,3l2.5,5c0.3,0.4 0.6,0.8 1,1c0,0 0,0 0,0l0,1c0,0.6 0.4,1 1,1l0,1c0,0.6 0.4,1 1,1l0,1c0,0.6 0.4,1 1,1l4,0c0.6,0 1,-0.4 1,-1l0,-1c0.6,0 1,-0.4 1,-1l0,-1c0.6,0 1,-0.4 1,-1l0,-1c0,0 0,0 0,-0.1c0.4,-0.1 0.8,-0.5 1,-0.9l2.5,-5c0.3,-0.9 0.5,-1.9 0.5,-3c0,-5 -4,-9 -9,-9zm2,23l-4,0l0,-1l4,0l0,1zm1,-2l-1,0l-4,0l-1,0l0,-1l6,0l0,1zm1,-2l-1,0l-6,0l-1,0l0,-1l8,0l0,1zm2.3,-7l-2,4l-8.6,0l-2,-4c-0.5,-0.9 -0.7,0.9 -0.7,-3c0,-3.9 3.1,-7 7,-7s7,3.1 7,7c0,1.1 -0.2,2.1 -0.7,3z"/>
  <path fill="#bc2618" id="svg_3" d="m12,3l0,1c2.8,0 5,2.2 5,5l1,0c0,-3.3 -2.7,-6 -6,-6z"/>
 </g>
</svg>