<svg width="40" height="40" xmlns="http://www.w3.org/2000/svg">

 <g>
  <title>background</title>
  <rect fill="none" id="canvas_background" height="42" width="42" y="-1" x="-1"/>
 </g>
 <g>
  <title>Layer 1</title>
  <path stroke="#bc2618" transform="rotate(37 20.000001430511475,20)" fill="#bc2618" stroke-width="0" id="path11556" d="m20.015758,4.25c-0.52497,0 -0.89873,0.31705 -1.28125,0.71875c-0.38252,0.4016 -0.76848,0.9228 -1.15625,1.5625c-0.77553,1.2796 -1.51783,2.96195 -2.03125,4.65625c-0.01866,0.04997 -0.02926,0.10295 -0.03125,0.15625l0,0.28125c-0.0052,0.04145 -0.0052,0.08355 0,0.125l0,1l0,1c-0.0052,0.04145 -0.0052,0.08355 0,0.125l0,1.09375c-0.00033,0.01041 -0.00033,0.02084 0,0.03125c-0.0474,0.1262 -0.0762,0.27985 -0.125,0.40625c-1.46832,3.8074 -3.61898,7.70165 -7.4375,9.90625c-0.03347,0.01722 -0.06499,0.03823 -0.09375,0.0625c-1.02721,0.56046 -2.04237,1.1608 -3,1.875c-0.1212,0.04299 -0.22434,0.13468 -0.28125,0.25c-0.11851,0.14612 -0.14386,0.36162 -0.0625,0.53125l0,2.71875c0.00003,0.26179 0.23821,0.49997 0.5,0.5l9.5,0l0,0.5c0,0.76031 0.57523,1.37697 1.3125,1.46875l0.71875,2.1875c0.06461,0.19641 0.262,0.34116 0.46875,0.34375l6,0c0.20675,-0.0026 0.40414,-0.14734 0.46875,-0.34375l0.75,-2.1875c0.72315,-0.10487 1.28125,-0.71861 1.28125,-1.46875l0,-0.5l9.5,0c0.26179,-0.00003 0.49997,-0.23821 0.5,-0.5l0,-2.875c0.02105,-0.08155 0.02105,-0.16845 0,-0.25c-0.0089,-0.02153 -0.01939,-0.04243 -0.03125,-0.0625c0.00033,-0.01041 0.00033,-0.02084 0,-0.03125c-0.0089,-0.02153 -0.01939,-0.04243 -0.03125,-0.0625c-0.01894,-0.02262 -0.03988,-0.04356 -0.0625,-0.0625c-0.0099,-0.01087 -0.02038,-0.0213 -0.03125,-0.03125c0.00033,-0.01041 0.00033,-0.02084 0,-0.03125c-0.02007,-0.01186 -0.04097,-0.02231 -0.0625,-0.03125c-0.0068,-0.0051 -0.0244,0.0051 -0.03125,0c-0.0099,-0.01087 -0.02038,-0.0213 -0.03125,-0.03125c-1.00651,-0.75192 -2.07104,-1.38418 -3.15625,-1.96875c-3.84755,-2.2214 -5.99973,-6.1656 -7.46875,-10c-0.03204,-0.08372 -0.06377,-0.16647 -0.09375,-0.25l0,-1.21875c0.0029,-0.03116 0.0029,-0.06259 0,-0.09375l0,-1l0,-1c0.0029,-0.03116 0.0029,-0.06259 0,-0.09375l0,-0.3125c-0.00199,-0.0533 -0.01259,-0.10628 -0.03125,-0.15625c-0.51342,-1.6943 -1.25572,-3.37665 -2.03125,-4.65625c-0.38777,-0.6397 -0.77373,-1.1609 -1.15625,-1.5625c-0.38252,-0.4017 -0.75628,-0.71875 -1.28125,-0.71875zm0,1c-0.025,0 0.22627,0.08605 0.53125,0.40625c0.30498,0.3202 0.66902,0.80865 1.03125,1.40625c0.66652,1.09968 1.35952,2.55534 1.84375,4.03125c-0.7122,-0.14534 -1.90971,-0.34375 -3.40625,-0.34375c-1.49653,0 -2.69405,0.19841 -3.40625,0.34375c0.48423,-1.47591 1.17723,-2.93157 1.84375,-4.03125c0.36223,-0.5976 0.72627,-1.08605 1.03125,-1.40625c0.30498,-0.3201 0.55622,-0.40625 0.53125,-0.40625zm0,6.5c1.73202,0 3.17521,0.3612 3.5,0.4375l0,0.5625l0,0.4375c-0.48426,-0.1122 -1.73152,-0.4375 -3.5,-0.4375c-1.76848,0 -3.01574,0.3253 -3.5,0.4375l0,-0.4375l0,-0.5625c0.32479,-0.076 1.76798,-0.4375 3.5,-0.4375zm0,2c1.62245,0 3.03096,0.30312 3.5,0.40625l0,0.8125c-0.0082,0.05166 -0.0082,0.10459 0,0.15625l0,0.0625c-0.0029,0.03116 -0.0029,0.06259 0,0.09375l0,4.46875l0,0.96875l0,2.0625l0,0.5625l0,5.90625l-7,0l0,-8.53125l0,-0.96875l0,-4.5625l0,-1.03125c0.46904,-0.10313 1.87754,-0.40625 3.5,-0.40625zm-4.5,3.9375l0,2.0625l0,0.96875l0,1.9375c-1.3313,0.23718 -2.6528,0.58231 -3.9375,1.03125c1.70391,-1.75864 2.96814,-3.86566 3.9375,-6zm9,0c0.96573,2.13022 2.21073,4.21039 3.90625,5.96875c-1.28038,-0.44684 -2.58263,-0.76409 -3.90625,-1l0,-1.9375l0,-0.96875l0,-2.0625zm-7,5.0625c-0.277,0 -0.5,0.223 -0.5,0.5c0,0.277 0.223,0.5 0.5,0.5l5,0c0.277,0 0.5,-0.223 0.5,-0.5c0,-0.277 -0.223,-0.5 -0.5,-0.5l-5,0zm-2,0.90625l0,5.6875c-0.42181,0.14796 -0.75024,0.48813 -0.90625,0.90625l-9.09375,0l0,-1.5l7.5,0l0,0.4375c-0.00374,0.26416 0.23582,0.50712 0.5,0.50712c0.26418,0 0.50374,-0.24296 0.5,-0.50712l0,-1.90625c0.0052,-0.29617 -0.30279,-0.55555 -0.59375,-0.5c-0.2292,0.04373 -0.41036,0.2667 -0.40625,0.5l0,0.46875l-7.15625,0c0.75969,-0.54216 1.53999,-1.02493 2.34375,-1.46875c0.0929,-0.01694 0.18071,-0.06085 0.25,-0.125c2.2342,-1.20056 4.61707,-2.0464 7.0625,-2.5zm9,0.03125c2.44923,0.45327 4.82634,1.2708 7.0625,2.46875c0.07764,0.06963 0.17754,0.11403 0.28125,0.125c0.79065,0.43672 1.56384,0.93593 2.3125,1.46875l-7.15625,0l0,-0.46875c0.0052,-0.29617 -0.30279,-0.55555 -0.59375,-0.5c-0.2292,0.04373 -0.41036,0.2667 -0.40625,0.5l0,1.90625c-0.0037,0.26416 0.23582,0.50712 0.5,0.50712c0.26418,0 0.50374,-0.24296 0.5,-0.50712l0,-0.4375l7.5,0l0,1.5l-9.09375,0c-0.15601,-0.41812 -0.48444,-0.75829 -0.90625,-0.90625l0,-5.65625zm-7,1.0625c-0.277,0 -0.5,0.223 -0.5,0.5c0,0.277 0.223,0.5 0.5,0.5l5,0c0.277,0 0.5,-0.223 0.5,-0.5c0,-0.277 -0.223,-0.5 -0.5,-0.5l-5,0zm0,2c-0.277,0 -0.5,0.223 -0.5,0.5c0,0.277 0.223,0.5 0.5,0.5l5,0c0.277,0 0.5,-0.223 0.5,-0.5c0,-0.277 -0.223,-0.5 -0.5,-0.5l-5,0zm-1.5,3.5l8,0c0.28566,0 0.5,0.2144 0.5,0.5l0,1c0,0.2856 -0.21434,0.5 -0.5,0.5l-8,0c-0.28566,0 -0.5,-0.2144 -0.5,-0.5l0,-1c0,-0.2856 0.21434,-0.5 0.5,-0.5zm0.84375,3l6.28125,0l-0.46875,1.5l-5.3125,0l-0.5,-1.5z"/>
 </g>
</svg>