<svg width="512" height="512" xmlns="http://www.w3.org/2000/svg">

 <g>
  <title>background</title>
  <rect fill="none" id="canvas_background" height="514" width="514" y="-1" x="-1"/>
 </g>
 <g>
  <title>Layer 1</title>
  <path fill="#bc2618" stroke="#bc2618" stroke-width="8" transform="rotate(46 302.9288330078124,249.68150329589844) " id="XMLID_596_" d="m413.882083,213.835722l-28.1,12.3l-13.1,-57.7c-0.2,-1 -0.7,-1.9 -1.3,-2.6c-0.3,-1.1 -1,-2.1 -2,-2.9l-55.4,-43.9c-2.3,-1.9 -5.7,-1.7 -7.8,0.4l-251.7,248.2l0,0c-2.2,2.2 -1.7,8.4 -0.6,10c1.7,2.6 5,4 7.7,4c0.4,0 0.7,0 1.1,-0.1l487.1,-82.3c3.5,-0.6 4.3,-5.2 1.2,-7l-137.1,-78.4zm-37.3,16.4l-277,121.5l264.6,-176.1l12.4,54.6zm-66,-101.4l48.5,38.5l-269.2,179.2l220.7,-217.7zm102.7,95.9l118.4,67.7l-443.4,75l325,-142.7z"/>
 </g>
</svg>