<svg width="512" height="512" xmlns="http://www.w3.org/2000/svg">

 <g>
  <title>background</title>
  <rect fill="none" id="canvas_background" height="402" width="582" y="-1" x="-1"/>
 </g>
 <g>
  <title>Layer 1</title>
  <path id="svg_2" stroke-width="20" stroke-miterlimit="10" stroke-linejoin="round" stroke-linecap="round" stroke="#bc2618" fill="none" d="m110.6,206.2c1.3,0.1 2.6,0.4 3.8,1c1.8,1 4,0.7 5.5,-0.8l49.1,-49.1c2.2,-2.2 2.2,-5.8 0,-8c-2.7,-2.7 -2.7,-7.1 0,-9.8l13.4,-13.4c2.7,-2.7 7.1,-2.7 9.8,0l4,4l32,-32c7.7,-7.7 7.7,-20.1 0,-27.7l-42.6,-42.6c-7.7,-7.7 -20.1,-7.7 -27.7,0l-32,32l3.3,3.3c3.5,3.5 3.5,9.3 0,12.8l-10.3,10.3c-3.5,3.5 -9.3,3.5 -12.8,0c-1.8,-1.8 -4.7,-1.8 -6.5,0l-49.8,49.8c-1.8,1.8 -1.8,4.8 0,6.6c1.8,1.8 2.1,4.7 0.6,6.9c-64.3,95 -18.7,141.5 -18.7,141.5c5.7,-41.6 40.8,-80.2 75.2,-84.8c1.1,-0.1 2.5,-0.1 3.7,0z"/>
  <path id="svg_3" stroke-width="20" stroke-miterlimit="10" stroke-linejoin="round" stroke-linecap="round" stroke="#bc2618" fill="none" d="m444.1,412.7l-257.9,-238.4l-46.8,46.8l238.3,257.9c13.1,14 35.2,14.4 48.8,0.8l18.4,-18.4c13.6,-13.5 13.2,-35.6 -0.8,-48.7z"/>
  <path id="svg_4" stroke-width="20" stroke-miterlimit="10" stroke-linejoin="round" stroke-linecap="round" stroke="#bc2618" fill="#f2dada" d="m98.511906,429.588094c-14.3,14.3 -14.3,37.4 0,51.7l0,0c14.3,14.3 37.4,14.3 51.7,0l102.6,-102.6l-49.7,-53.7l-104.6,104.6z"/>
  <path id="svg_5" stroke-width="20" stroke-miterlimit="10" stroke-linejoin="round" stroke-linecap="round" stroke="#bc2618" fill="#f2dada" d="m495.488094,149.311906l-55.9,55.9c-4.3,4.3 -10.8,5.7 -16.5,3.6l-31.3,-11.7c-4.2,-1.6 -7.6,-4.9 -9.1,-9.1l-11.7,-31.3c-2.1,-5.7 -0.7,-12.2 3.6,-16.5l55.9,-55.9c-29.4,-7.2 -61.7,0.7 -84.5,23.8c-25.1,25.4 -31.7,62.4 -19.9,93.9l-36.1,36.1l53.7,49.7l34,-34c31.7,12 68.9,5.2 94.4,-20.3c22.8,-22.9 30.6,-55 23.4,-84.2z"/>
 </g>
</svg>