<svg width="200" height="200" xmlns="http://www.w3.org/2000/svg">

 <g>
  <title>background</title>
  <rect fill="none" id="canvas_background" height="402" width="582" y="-1" x="-1"/>
 </g>
 <g>
  <title>Layer 1</title>
  <path stroke="#bc2618" stroke-width="2" fill="#bc2618" id="svg_2" d="m25.5,32.1c2.6,0 4.7,-2.1 4.7,-4.7s-2.1,-4.7 -4.7,-4.7s-4.7,2.1 -4.7,4.7s2.1,4.7 4.7,4.7zm0,-7.4c1.5,0 2.7,1.2 2.7,2.7c0,1.5 -1.2,2.7 -2.7,2.7s-2.7,-1.2 -2.7,-2.7c0,-1.5 1.2,-2.7 2.7,-2.7z"/>
  <path stroke="#bc2618" stroke-width="2" fill="#bc2618" id="svg_3" d="m38.310572,32.1c2.6,0 4.7,-2.1 4.7,-4.7s-2.1,-4.7 -4.7,-4.7c-2.6,0 -4.7,2.1 -4.7,4.7s2.1,4.7 4.7,4.7zm0,-7.4c1.5,0 2.7,1.2 2.7,2.7c0,1.5 -1.2,2.7 -2.7,2.7c-1.5,0 -2.7,-1.2 -2.7,-2.7c0,-1.5 1.2,-2.7 2.7,-2.7z"/>
  <path stroke="#bc2618" stroke-width="2" fill="#bc2618" id="svg_4" d="m51.121145,32.1c2.6,0 4.7,-2.1 4.7,-4.7s-2.1,-4.7 -4.7,-4.7s-4.7,2.1 -4.7,4.7s2.1,4.7 4.7,4.7zm0,-7.4c1.5,0 2.7,1.2 2.7,2.7c0,1.5 -1.2,2.7 -2.7,2.7s-2.7,-1.2 -2.7,-2.7c0,-1.5 1.2,-2.7 2.7,-2.7z"/>
  <path stroke="#bc2618" stroke-width="2" fill="#bc2618" id="svg_5" d="m67.100001,166.084579l-37,0c-0.6,0 -1,0.4 -1,1s0.4,1 1,1l37,0c0.6,0 1,-0.4 1,-1s-0.4,-1 -1,-1z"/>
  <path stroke="#bc2618" stroke-width="2" fill="#bc2618" id="svg_9" d="m119.1,166.084579l-37,0c-0.6,0 -1,0.4 -1,1s0.4,1 1,1l37,0c0.6,0 1,-0.4 1,-1s-0.4,-1 -1,-1z"/>
  <path stroke="#bc2618" stroke-width="2" fill="#bc2618" id="svg_13" d="m170.1,166.084579l-37,0c-0.6,0 -1,0.4 -1,1s0.4,1 1,1l37,0c0.6,0 1,-0.4 1,-1s-0.4,-1 -1,-1z"/>
  <path stroke="#bc2618" stroke-width="2" fill="#bc2618" id="svg_17" d="m185,77.6l0,-40.9l0,-18.7l-170,0l0,18.7l0,40.6c0,0.2 -0.3,0.4 -0.3,0.7s0.3,0.6 0.3,0.7l0,103.3l170,0l0,-103.6c0,-0.1 0.1,-0.3 0.1,-0.4s-0.1,-0.3 -0.1,-0.4zm-2,102.4l-166,0l0,-101l63.4,0c0.8,10.2 9.4,18.3 19.8,18.3s19,-8.1 19.8,-18.3l63,0l0,101zm-82.8,-99.6c5.9,0 11.1,4.3 12.2,10.1c-3.2,3 -7.5,4.8 -12.2,4.8c-4.7,0 -9,-1.8 -12.2,-4.8c1.1,-5.8 6.3,-10.1 12.2,-10.1zm-4.8,-7.3c0,-2.7 2.2,-4.8 4.8,-4.8c2.7,0 4.8,2.2 4.8,4.8s-2.2,4.8 -4.8,4.8c-2.6,0 -4.8,-2.2 -4.8,-4.8zm8.4,5.8c1.9,-1.2 3.2,-3.4 3.2,-5.8c0,-3.8 -3.1,-6.8 -6.8,-6.8c-3.8,0 -6.8,3.1 -6.8,6.8c0,2.5 1.3,4.6 3.2,5.8c-4.9,1.3 -8.8,5 -10.2,9.9c-2.6,-3.1 -4.1,-7.1 -4.1,-11.4c0,-9.9 8,-17.9 17.9,-17.9s17.9,8 17.9,17.9c0,4.3 -1.5,8.3 -4.1,11.4c-1.4,-4.9 -5.3,-8.7 -10.2,-9.9zm79.2,-1.9l-62.9,0c-0.2,-10.8 -9,-19.6 -19.9,-19.6s-19.7,8.8 -19.9,19.6l-63.3,0l0,-40l166,0l0,40zm0,-42l-166,0l0,-15l166,0l0,15z"/>
  <path stroke="#bc2618" stroke-width="2" fill="#bc2618" id="svg_18" d="m131.359465,146l40,0l0,-40l-40,0l0,40zm2,-38l36,0l0,36l-36,0l0,-36z"/>
  <path stroke="#bc2618" stroke-width="2" fill="#bc2618" id="svg_21" d="m28,146l40,0l0,-40l-40,0l0,40zm2,-38l36,0l0,36l-36,0l0,-36z"/>
  <path stroke="#bc2618" stroke-width="2" fill="#bc2618" id="svg_22" d="m80.000002,146l40,0l0,-40l-40,0l0,40zm2,-38l36,0l0,36l-36,0l0,-36z"/>
  <path stroke="#bc2618" stroke-width="2" fill="#bc2618" id="svg_23" d="m67.1,154l-37,0c-0.6,0 -1,0.4 -1,1s0.4,1 1,1l37,0c0.6,0 1,-0.4 1,-1s-0.4,-1 -1,-1z"/>
  <path stroke="#bc2618" stroke-width="2" fill="#bc2618" id="svg_24" d="m119.1,154l-37,0c-0.6,0 -1,0.4 -1,1s0.4,1 1,1l37,0c0.6,0 1,-0.4 1,-1s-0.4,-1 -1,-1z"/>
  <path stroke="#bc2618" stroke-width="2" fill="#bc2618" id="svg_25" d="m170.1,154l-37,0c-0.6,0 -1,0.4 -1,1s0.4,1 1,1l37,0c0.6,0 1,-0.4 1,-1s-0.4,-1 -1,-1z"/>
  <path stroke="#bc2618" stroke-width="2" fill="#bc2618" id="svg_26" d="m170.1,160.04229l-37,0c-0.6,0 -1,0.4 -1,1s0.4,1 1,1l37,0c0.6,0 1,-0.4 1,-1s-0.4,-1 -1,-1z"/>
  <path stroke="#bc2618" stroke-width="2" fill="#bc2618" id="svg_27" d="m119.1,160.04229l-37,0c-0.6,0 -1,0.4 -1,1s0.4,1 1,1l37,0c0.6,0 1,-0.4 1,-1s-0.4,-1 -1,-1z"/>
  <path stroke="#bc2618" stroke-width="2" fill="#bc2618" id="svg_28" d="m67.100001,160.04229l-37,0c-0.6,0 -1,0.4 -1,1s0.4,1 1,1l37,0c0.6,0 1,-0.4 1,-1s-0.4,-1 -1,-1z"/>
 </g>
</svg>